<svg xmlns="http://www.w3.org/2000/svg" width="162.333" height="132.302" viewBox="0 0 162.333 132.302"><g id="Group_133" data-name="Group 133" transform="translate(-636 -2308.486)"><g id="Group_132" data-name="Group 132"><path id="Path_26" data-name="Path 26" d="M192.621,245.137h5.16v.749h-4.35v2.565h3.888v.738h-3.888v3.129h-.81Z" transform="translate(444.125 2188.347)" fill="#f29260"></path><rect id="Rectangle_12" data-name="Rectangle 12" width="0.81" height="7.181" transform="translate(645.29 2433.484)" fill="#f29260"></rect><path id="Path_27" data-name="Path 27" d="M209.857,245.138h.457a.621.621,0,0,1,.489.237l4.337,5.517v-5.755h.79v7.181h-.345a.622.622,0,0,1-.488-.237l-4.451-5.652v5.888h-.789Z" transform="translate(440.089 2188.347)" fill="#f29260"></path><path id="Path_28" data-name="Path 28" d="M222.713,245.137h5.19v.738h-4.38v2.452h3.919v.739h-3.919v2.513h4.432v.738h-5.242Z" transform="translate(437.078 2188.347)" fill="#f29260"></path><path id="Path_29" data-name="Path 29" d="M242.725,245.07h.759l3.272,7.232h-.467a.622.622,0,0,1-.568-.369l-.678-1.529h-3.909l-.686,1.531a.621.621,0,0,1-.568.367h-.428Zm2,4.606-1.631-3.662-1.641,3.662Z" transform="translate(433.157 2188.363)" fill="#f29260"></path><path id="Path_30" data-name="Path 30" d="M253.113,245.138H256.2a2.834,2.834,0,0,1,2.042.717,1.986,1.986,0,0,1,.554,1.416v.021a2.1,2.1,0,0,1-1.949,2.093l2.205,2.934h-.683a.623.623,0,0,1-.5-.25l-1.9-2.541h-2.051v2.791h-.81Zm3.016,3.662c1.077,0,1.846-.554,1.846-1.477V247.3c0-.882-.677-1.416-1.836-1.416h-2.215V248.8Z" transform="translate(429.958 2188.347)" fill="#f29260"></path><path id="Path_31" data-name="Path 31" d="M266.813,245.886H264.4v-.749h5.642v.749h-2.411v6.432h-.821Z" transform="translate(427.313 2188.347)" fill="#f29260"></path><rect id="Rectangle_13" data-name="Rectangle 13" width="0.81" height="7.181" transform="translate(700.689 2433.484)" fill="#f29260"></rect><path id="Path_32" data-name="Path 32" d="M281.584,251.24l.11-.13a.627.627,0,0,1,.848-.093,3.242,3.242,0,0,0,2.006.644c.965,0,1.6-.513,1.6-1.221v-.021c0-.666-.359-1.046-1.867-1.364-1.652-.359-2.411-.893-2.411-2.072v-.021a2.12,2.12,0,0,1,2.359-1.96,3.749,3.749,0,0,1,2.523.882l-.11.146a.63.63,0,0,1-.832.147,3.022,3.022,0,0,0-1.6-.447c-.933,0-1.529.513-1.529,1.159v.021c0,.677.37,1.057,1.949,1.4,1.6.348,2.34.934,2.34,2.031v.021c0,1.231-1.026,2.031-2.452,2.031a4.2,4.2,0,0,1-2.934-1.149" transform="translate(423.289 2188.379)" fill="#f29260"></path><path id="Path_33" data-name="Path 33" d="M295.516,245.07h.759l3.272,7.232h-.467a.622.622,0,0,1-.568-.369l-.677-1.529h-3.909l-.686,1.531a.621.621,0,0,1-.567.367h-.428Zm2,4.606-1.631-3.662-1.641,3.662Z" transform="translate(420.793 2188.363)" fill="#f29260"></path><path id="Path_34" data-name="Path 34" d="M305.9,245.138h.457a.621.621,0,0,1,.488.237l4.338,5.517v-5.755h.789v7.181h-.345a.622.622,0,0,1-.488-.237l-4.451-5.652v5.888H305.9Z" transform="translate(417.593 2188.347)" fill="#f29260"></path><path id="Path_35" data-name="Path 35" d="M325.054,245.138h.81v4.288l3.941-4.1a.621.621,0,0,1,.448-.191h.782l-3.078,3.139,3.211,4.042h-.715a.622.622,0,0,1-.487-.235l-2.573-3.242-1.529,1.549v1.928h-.81Z" transform="translate(413.108 2188.347)" fill="#f29260"></path><rect id="Rectangle_14" data-name="Rectangle 14" width="0.81" height="7.181" transform="translate(747.352 2433.484)" fill="#f29260"></rect><path id="Path_36" data-name="Path 36" d="M344.874,245.886h-2.411v-.749h5.643v.749H345.7v6.432h-.821Z" transform="translate(409.031 2188.347)" fill="#f29260"></path><path id="Path_37" data-name="Path 37" d="M353.673,248.711v-.021a3.618,3.618,0,0,1,3.631-3.713,3.739,3.739,0,0,1,2.8,1.139l-.28.3a.413.413,0,0,1-.565.036,2.969,2.969,0,0,0-1.965-.727,2.816,2.816,0,0,0-2.781,2.944v.021a2.834,2.834,0,0,0,2.781,2.965,2.944,2.944,0,0,0,2.04-.785.412.412,0,0,1,.555.021l.257.251a3.741,3.741,0,0,1-2.873,1.261,3.582,3.582,0,0,1-3.6-3.693" transform="translate(406.405 2188.385)" fill="#f29260"></path><path id="Path_38" data-name="Path 38" d="M366.248,245.137h.81v3.19H371.2v-3.19h.811v7.181H371.2v-3.232h-4.144v3.232h-.81Z" transform="translate(403.46 2188.347)" fill="#f29260"></path><path id="Path_39" data-name="Path 39" d="M378.7,245.137h5.191v.738h-4.38v2.452h3.918v.739h-3.918v2.513h4.432v.738H378.7Z" transform="translate(400.543 2188.347)" fill="#f29260"></path><path id="Path_40" data-name="Path 40" d="M389.952,245.138h.457a.621.621,0,0,1,.489.237l4.338,5.517v-5.755h.789v7.181h-.344a.622.622,0,0,1-.488-.237l-4.451-5.652v5.888h-.789Z" transform="translate(397.908 2188.347)" fill="#f29260"></path><path id="Path_41" data-name="Path 41" d="M288.338,115.967q1.553,2.737,2.851,5.628a46.887,46.887,0,0,1,15.034-13.325,46.413,46.413,0,0,1,20.424-5.839V96.74a52.187,52.187,0,0,0-38.309,19.227m-60.706,30.8h23.806a21.651,21.651,0,0,0-21.531-19.375h-2.275V112.609h2.275a36.437,36.437,0,0,1,36.362,34.158h5.693a42.116,42.116,0,0,0-42.055-39.842h-2.275V92.142h2.275a56.9,56.9,0,0,1,56.854,54.624h5.687a62.581,62.581,0,0,0-62.541-60.308h-2.275v-4.55h2.275a66.925,66.925,0,0,1,47.469,19.662q1.044,1.045,2.042,2.135a67.017,67.017,0,0,1,49.5-21.8H331.2v4.55h-2.274A62.373,62.373,0,0,0,282.39,107.18q1.819,2.277,3.439,4.71a56.816,56.816,0,0,1,43.093-19.748H331.2v14.783h-2.274a42.064,42.064,0,0,0-35.7,19.746,66.464,66.464,0,0,1,2.255,7.9,36.473,36.473,0,0,1,33.447-21.967H331.2v14.783h-2.274a21.652,21.652,0,0,0-21.532,19.375H331.2v4.549H302.723v-2.274a26.2,26.2,0,0,1,23.924-26.1v-5.7a31.885,31.885,0,0,0-29.609,31.8v2.274H282.256v-2.274a52.347,52.347,0,0,0-50.074-52.3v5.69a46.668,46.668,0,0,1,44.391,46.61v2.274H261.789v-2.274a31.882,31.882,0,0,0-29.608-31.8v5.7a26.2,26.2,0,0,1,23.924,26.1v2.274H227.632Z" transform="translate(435.925 2226.577)" fill="#f29260"></path><path id="Path_42" data-name="Path 42" d="M241.465,203.517l-6.66,15.508a5.951,5.951,0,0,0-.627,2.175,1.271,1.271,0,0,0,.537,1.032,4.4,4.4,0,0,0,2.355.536v.7H229.15v-.7a4.1,4.1,0,0,0,2.043-.717,11.751,11.751,0,0,0,2.11-3.611l8.837-20.7h.653l8.748,20.929a10.068,10.068,0,0,0,1.928,3.272,4.011,4.011,0,0,0,2.4.831v.7h-9.917v-.7a5.261,5.261,0,0,0,1.238-.155,2.561,2.561,0,0,0,.783-.335,1.218,1.218,0,0,0,.417-.463,1.317,1.317,0,0,0,.123-.57,7.562,7.562,0,0,0-.742-2.579Zm39.6-5.183v1.507c-.582-.086-6.547-.127-7.332-.127h-5.54v9.924h6.436v1.33h-6.436v8.053c0,.6.014,1.085.034,1.458a4.055,4.055,0,0,0,.136.921,1.229,1.229,0,0,0,.3.561,2.234,2.234,0,0,0,.537.381,3.5,3.5,0,0,0,1.707.425h.916v.7H261v-.7h.9a2.687,2.687,0,0,0,2.264-.9,5.713,5.713,0,0,0,.446-2.846V202.772c0-.58-.008-1.06-.032-1.433a3.972,3.972,0,0,0-.145-.917,1.475,1.475,0,0,0-.315-.574,2.176,2.176,0,0,0-.515-.393,3.386,3.386,0,0,0-1.7-.446H261v-.676Zm37.095,1.38v9.924h7.852v1.33h-7.852v8.3a8.825,8.825,0,0,0,.132,2.039,1.057,1.057,0,0,0,.192.324.95.95,0,0,0,.336.246,1.991,1.991,0,0,0,.547.158,5.544,5.544,0,0,0,.877.054h11.393v1.379H310.988v-.7h.877a3.722,3.722,0,0,0,.749-.078,3.354,3.354,0,0,0,.729-.233,2.465,2.465,0,0,0,.607-.406,1.563,1.563,0,0,0,.405-.58,8.434,8.434,0,0,0,.221-2.445V202.707a14.034,14.034,0,0,0-.11-1.941,2,2,0,0,0-.361-1.019,2.914,2.914,0,0,0-2.239-.737h-.877v-.676h20.651v1.417c-.381-.024-6.1-.037-6.571-.037Zm32.165,23.053v.7H339.544v-.7h.9a2.689,2.689,0,0,0,2.264-.9,5.7,5.7,0,0,0,.446-2.846V202.772c0-.58-.008-1.06-.032-1.433a3.814,3.814,0,0,0-.145-.917,1.467,1.467,0,0,0-.314-.574,2.2,2.2,0,0,0-.516-.393,3.544,3.544,0,0,0-1.7-.446h-.9v-.676h10.783v.676h-.917a2.663,2.663,0,0,0-2.244.917,5.3,5.3,0,0,0-.475,2.845v16.253c0,.6.011,1.086.036,1.458a3.824,3.824,0,0,0,.144.909,1.471,1.471,0,0,0,.314.557,2.092,2.092,0,0,0,.541.394,3.379,3.379,0,0,0,1.684.425Zm-44.011-24.433v1.507c-.582-.086-6.547-.127-7.332-.127h-5.54v9.924h6.436v1.33h-6.436v8.053c0,.6.015,1.085.034,1.458a4.084,4.084,0,0,0,.136.921,1.229,1.229,0,0,0,.3.561,2.245,2.245,0,0,0,.537.381,3.506,3.506,0,0,0,1.707.425h.917v.7H286.247v-.7h.9a2.686,2.686,0,0,0,2.264-.9,5.71,5.71,0,0,0,.447-2.846V202.772c0-.58-.008-1.06-.033-1.433a3.945,3.945,0,0,0-.144-.917,1.5,1.5,0,0,0-.315-.574,2.193,2.193,0,0,0-.515-.393,3.391,3.391,0,0,0-1.7-.446h-.9v-.676Zm-99.734,25.129-9.71-21.158v16.811c0,1.551.162,2.517.491,2.89a2.814,2.814,0,0,0,2.178.761h.872v.7h-8.766v-.7h.9a2.567,2.567,0,0,0,2.264-.961,5.482,5.482,0,0,0,.405-2.69V202.683c0-.564-.025-1.077-.069-1.532a2.317,2.317,0,0,0-.414-1.159,2.223,2.223,0,0,0-1.064-.724,6.238,6.238,0,0,0-2.023-.258v-.676h7.14l9.142,19.659,8.983-19.659h3.57v20.782q0,2.309.516,2.89a2.769,2.769,0,0,0,2.177.761h.851v.7H213.333v-.7h.9a2.573,2.573,0,0,0,2.268-.961,5.531,5.531,0,0,0,.4-2.69V202.306l-9.712,21.158Zm143.745-34.253v-.905h.687c.344,0,.561.163.561.452,0,.271-.2.453-.561.453Zm-.8,1.682h.8v-1.031h.506l.705,1.031h.959l-.832-1.176a1.007,1.007,0,0,0,.724-1.013c0-.742-.561-1.085-1.321-1.085H349.53Zm1.3,1.248a2.768,2.768,0,0,1-2.786-2.8v-.018a2.786,2.786,0,1,1,5.572-.018v.018a2.8,2.8,0,0,1-2.786,2.822m0,.344a3.165,3.165,0,0,0,3.147-3.166V189.3a3.148,3.148,0,1,0-6.3.018v.018a3.139,3.139,0,0,0,3.148,3.148" transform="translate(444.354 2202.162)" fill="#fff" fill-rule="evenodd"></path></g></g></svg>